<svg width="59" height="30" viewBox="0 0 59 30" fill="none" xmlns="http://www.w3.org/2000/svg">
<path d="M14.7894 11.6297C16.0963 11.6283 17.4032 11.6106 18.7097 11.6283C29.8324 11.78 40.955 11.9379 52.0776 12.0955C53.2908 12.1129 54.5087 12.0824 55.7161 12.178C57.3784 12.3099 59.3244 12.6196 58.9345 14.7542C58.7788 15.6065 56.9519 16.6853 55.8331 16.7496C46.5484 17.283 37.2519 17.6183 27.9574 17.9757C25.8415 18.0571 23.7198 17.9917 21.3803 19.1345C23.9266 20.5783 26.6094 21.8357 28.96 23.5469C30.0736 24.3577 31.397 26.2377 31.1465 27.2794C30.5902 29.5915 28.1854 29.2574 26.5834 28.556C19.0087 25.2392 11.3418 22.0535 4.07753 18.1384C-0.575256 15.6307 -0.540634 11.8651 4.08467 9.36776C10.2736 6.02592 16.8831 3.44438 23.3882 0.717319C24.1738 0.388118 25.4333 1.18349 26.4731 1.45745C26.1248 2.49893 26.0868 3.93171 25.3644 4.50143C23.8023 5.73372 21.8938 6.53192 20.1185 7.49193C18.2589 8.49762 16.3894 9.48473 14.5242 10.4799C14.6127 10.8632 14.701 11.2464 14.7894 11.6297Z" fill="#503500"/>
</svg>
