<svg width="82" height="82" viewBox="0 0 82 82" fill="none" xmlns="http://www.w3.org/2000/svg">
<path d="M40.9952 78.5834C20.2684 78.5834 3.42615 61.7221 3.41663 40.9953C3.40711 20.2876 20.2875 3.41675 41.0047 3.41675C61.7315 3.42627 78.5928 20.2971 78.5833 41.0048C78.5738 61.7411 61.722 78.5929 40.9952 78.5834ZM76.2412 41.0429C76.2697 21.5919 60.5128 5.80647 41.0428 5.7779C21.5823 5.73982 5.79683 21.4967 5.76827 40.9668C5.7397 60.4273 21.4966 76.2127 40.9666 76.2318C60.4271 76.2603 76.2126 60.513 76.2412 41.0429Z" fill="#051B71"/>
<path d="M45.4614 54.657C44.0956 54.657 42.7402 54.684 41.3745 54.648C37.091 54.5489 33.2835 51.6836 32.5282 48.0163C32.4144 47.4847 32.342 46.944 32.3627 46.4034C32.373 46.043 32.2178 45.9979 31.8557 45.9979C29.7346 46.0069 27.6136 46.0069 25.4926 45.9979C24.82 45.9979 24.3648 45.6736 24.2096 45.1419C24.0854 44.6824 24.3234 44.1958 24.7993 43.9526C25.0994 43.7994 25.4201 43.7994 25.7512 43.7994C27.7688 43.7994 29.7864 43.7904 31.8039 43.8084C32.2282 43.8084 32.3627 43.7183 32.3523 43.3398C32.3316 41.3756 32.3316 39.4023 32.3523 37.438C32.3523 37.0685 32.2592 36.9604 31.8246 36.9604C29.6726 36.9784 27.5101 36.9694 25.3581 36.9694C24.52 36.9694 23.9613 36.564 23.9199 35.9512C23.8681 35.2394 24.4372 34.7528 25.3581 34.7528C27.4998 34.7438 29.6312 34.7348 31.7729 34.7619C32.2488 34.7709 32.3627 34.6447 32.3627 34.2393C32.3523 32.7976 32.2799 31.3649 32.7144 29.9412C33.687 26.7605 37.1531 24.2106 40.9399 24.0033C43.9301 23.8411 46.9409 23.9583 49.9311 23.9493C50.7381 23.9493 51.2554 24.4358 51.2451 25.0756C51.2348 25.7063 50.6864 26.1568 49.8794 26.1658C47.272 26.1749 44.675 26.1658 42.0677 26.1658C37.8463 26.1749 34.8872 28.7609 34.8872 32.4372C34.8872 33.0679 34.9079 33.6986 34.8769 34.3294C34.8562 34.6537 34.9493 34.7619 35.3528 34.7528C37.3497 34.7348 39.3569 34.7438 41.3538 34.7438C42.2126 34.7438 42.7713 35.1673 42.792 35.8161C42.8127 36.4829 42.2436 36.9604 41.3952 36.9604C39.4087 36.9694 37.4325 36.9784 35.4459 36.9514C35.001 36.9424 34.8665 37.0235 34.8769 37.438C34.9079 39.4023 34.9079 41.3756 34.8769 43.3398C34.8769 43.7273 35.001 43.8084 35.4252 43.7994C37.4221 43.7814 39.4293 43.7904 41.4262 43.7904C41.7056 43.7904 41.9849 43.7814 42.2436 43.8624C42.8023 44.0336 43.1541 44.5743 43.0506 45.0879C42.9368 45.6195 42.4298 45.9889 41.7573 45.9889C39.688 45.9979 37.6187 45.9889 35.5494 45.9889C34.8769 45.9889 34.8769 45.9889 34.8976 46.5476C34.9803 49.8094 38.0015 52.4224 41.778 52.4494C44.4681 52.4675 47.1582 52.4494 49.8483 52.4585C50.6553 52.4585 51.1934 52.8459 51.2451 53.4586C51.3072 54.1254 50.7692 54.639 49.9621 54.648C48.4619 54.657 46.9616 54.648 45.4614 54.648C45.4614 54.666 45.4614 54.666 45.4614 54.657Z" fill="#369AD4"/>
</svg>
