<svg width="82" height="82" viewBox="0 0 82 82" fill="none" xmlns="http://www.w3.org/2000/svg">
<path d="M20.4775 35.1479C20.4775 25.5122 20.4775 15.8767 20.4775 6.24161C20.4775 3.17893 22.333 0.803832 25.2266 0.148206C25.7309 0.0424534 26.2454 -0.00698633 26.7606 0.00079365C35.9146 0.00079365 45.069 0.00079365 54.2237 0.00079365C56.1101 0.00079365 57.6884 0.65436 59.013 2.00582C63.208 6.28732 67.4146 10.5585 71.6328 14.8194C72.8492 16.0564 73.4595 17.5233 73.4585 19.2624C73.4523 34.2373 73.4492 49.213 73.4492 64.1893C73.4492 67.7468 70.8721 70.3394 67.3073 70.3425C53.757 70.3562 40.2061 70.3562 26.6544 70.3425C23.0536 70.3425 20.4785 67.721 20.4764 64.1048C20.4737 54.4539 20.474 44.8016 20.4775 35.1479ZM23.0185 35.1603C23.0185 44.7947 23.0185 54.4295 23.0185 64.0646C23.0185 66.4015 24.4329 67.8076 26.774 67.8076H67.2177C69.4856 67.8076 70.9463 66.3644 70.9463 64.1254C70.9504 49.2006 70.9504 34.2758 70.9463 19.3511C70.9587 18.8347 70.865 18.3212 70.671 17.8425C70.477 17.3637 70.1869 16.9299 69.8185 16.5677C65.5728 12.2718 61.3301 7.96865 57.0905 3.65828C56.7476 3.29641 56.3329 3.01011 55.8729 2.81769C55.413 2.62527 54.918 2.53098 54.4195 2.54083C45.1459 2.54702 35.8723 2.54702 26.5987 2.54083C26.1693 2.531 25.7415 2.59516 25.3338 2.73051C23.8577 3.25418 23.0196 4.5139 23.0196 6.25193C23.0175 15.8884 23.0172 25.5245 23.0185 35.1603Z" fill="#369AD4"/>
<path d="M41.8697 51.4151C41.3759 51.4243 41.045 51.147 40.7357 50.8048C38.4239 48.2661 36.1092 45.7295 33.7919 43.195C33.2012 42.5486 32.6084 41.9033 32.0209 41.2549C31.39 40.5601 31.359 39.8313 31.9332 39.2963C32.5074 38.7613 33.2455 38.8499 33.8723 39.5354C36.4453 42.3483 39.0128 45.166 41.5749 47.9885C41.8625 48.306 41.9975 48.2637 42.2728 47.9885C48.1521 42.2116 54.0366 36.4408 59.9262 30.6762C60.0802 30.5146 60.2452 30.3637 60.42 30.2247C60.6607 30.0401 60.9609 29.9503 61.2635 29.9726C61.5661 29.9948 61.85 30.1275 62.0611 30.3453C62.2812 30.5668 62.4106 30.8625 62.4242 31.1744C62.4377 31.4863 62.3343 31.7921 62.1343 32.0318C62.0103 32.1744 61.8781 32.3097 61.7385 32.4369C55.4708 38.5774 49.2036 44.7183 42.9366 50.8594C42.6315 51.1604 42.3171 51.4151 41.8697 51.4151Z" fill="#369AD4"/>
<path d="M60.9292 21.4483C59.486 21.4483 58.0428 21.4555 56.5996 21.4483C53.8822 21.4308 52.0184 19.5567 52.0133 16.8332C52.0071 13.8437 52.0133 10.8542 52.0133 7.86471C51.9983 7.60752 52.0333 7.34985 52.1164 7.10599C52.2154 6.86624 52.3859 6.66282 52.6047 6.52338C52.8234 6.38394 53.0798 6.31526 53.339 6.32666C53.5982 6.33535 53.848 6.42651 54.0519 6.58687C54.2558 6.74723 54.4033 6.96844 54.4729 7.21836C54.5276 7.45172 54.5525 7.69106 54.5471 7.93068C54.5471 10.7655 54.609 13.6004 54.5306 16.4332C54.476 18.4166 55.5976 18.9877 57.0346 18.9578C59.9529 18.898 62.8744 18.9423 65.7969 18.9382C66.37 18.9382 66.7978 19.166 67.0401 19.6845C67.2659 20.167 67.1741 20.6267 66.8339 21.0247C66.5453 21.3679 66.1525 21.4504 65.7206 21.4483C64.1238 21.4442 62.5218 21.4483 60.9292 21.4483Z" fill="#369AD4"/>
<path d="M8.54801 46.1099C8.54801 36.2845 8.54801 26.4591 8.54801 16.6338C8.54801 13.4751 10.4766 11.048 13.4881 10.4131C14.4657 10.2029 15.4646 10.2323 16.4539 10.3006C17.1879 10.3511 17.6506 10.9135 17.6325 11.6072C17.6144 12.301 17.1081 12.8129 16.3784 12.8528C15.8295 12.8822 15.2795 12.8528 14.7295 12.8644C12.7509 12.8917 11.2446 14.3286 11.1383 16.289C11.1308 16.4109 11.1319 16.5339 11.1319 16.6558C11.1319 36.308 11.1319 55.9594 11.1319 75.6101C11.1319 77.5379 12.2105 78.9527 13.9817 79.3354C14.3125 79.3949 14.6488 79.4192 14.9848 79.4079C28.9158 79.4121 42.8469 79.4121 56.7779 79.4079C59.0022 79.4079 60.3947 78.1371 60.5904 75.9549C60.6649 75.1045 61.2287 74.5495 61.9733 74.5968C62.7562 74.6473 63.2445 75.258 63.2062 76.1367C63.0658 79.3049 60.5628 81.7803 57.2896 81.9863C57.0949 81.9979 56.8992 82 56.7045 82C42.8096 82 28.9144 82 15.0189 82C12.0744 82 9.75963 80.4149 8.86075 77.807C8.60545 77.0712 8.54163 76.307 8.54163 75.5323C8.55014 65.7259 8.55226 55.9184 8.54801 46.1099Z" fill="#051B71"/>
</svg>
