<svg width="98" height="89" viewBox="0 0 98 89" fill="none" xmlns="http://www.w3.org/2000/svg"><path d="M50.225 0v.075h-2.45V0h2.45ZM4.617 45.684H4.54v-2.45h.076v2.45ZM93.459 45.684h-.076v-2.45h.076v2.45ZM47.776 88.918v-.076h2.45v.076h-2.45Z" fill="#FDFDFD"/><path d="M50.225 88.842h-2.45c-3.347-.126-6.653-.547-9.892-1.407C28.14 84.852 20.16 79.59 13.945 71.65c-4.64-5.929-7.537-12.636-8.755-20.072a51.127 51.127 0 0 1-.57-5.895v-2.45c.125-3.391.548-6.75 1.442-10.032 3.014-11.074 9.326-19.76 18.936-26.058C30.248 3.7 36.014 1.564 42.21.586a48.165 48.165 0 0 1 5.565-.51h2.45c3.33.124 6.622.545 9.85 1.393 9.083 2.386 16.673 7.153 22.768 14.3 5.067 5.945 8.325 12.765 9.776 20.458a48.36 48.36 0 0 1 .763 7.007v2.45c-.123 3.33-.54 6.624-1.393 9.85-2.58 9.762-7.846 17.756-15.797 23.983-5.93 4.64-12.637 7.537-20.073 8.755-1.952.305-3.92.495-5.894.57ZM6.912 44.47c.012 23.203 18.856 42.055 42.063 42.078 23.206.024 42.09-18.842 42.111-42.073.026-23.197-18.87-42.1-42.086-42.103C25.785 2.37 6.9 21.263 6.912 44.468v.001Z" fill="#051B71"/><path d="M21.554 34.83c-.017-7.31 5.402-13.603 12.637-14.684 7.792-1.163 15.218 4.01 16.75 11.746.84 4.24-.045 8.16-2.604 11.667-.257.353-.283.618-.099 1.004.508 1.055 1.157 2.043 1.48 3.189.277.984.177 1.864-.572 2.605-.778.768-1.922.886-3.01.353-.8-.391-1.493-.942-2.125-1.54-.754-.715-1.395-.829-2.45-.44-8.185 3.022-17.086-1.56-19.484-9.948a14.051 14.051 0 0 1-.523-3.951ZM36.07 22.294c-.753.002-1.503.085-2.238.248-9.044 1.965-12.97 12.445-7.407 19.845 2.095 2.784 4.928 4.428 8.385 4.874a12.38 12.38 0 0 0 7.391-1.286c.617-.317 1.147-.283 1.688.174.842.706 1.712 1.376 2.578 2.051.216.155.44.299.67.43.11.07.244.129.352.05.132-.095.011-.233-.019-.336a5.915 5.915 0 0 0-.565-1.34c-.427-.731-.733-1.524-1.13-2.27-.4-.764-.272-1.35.269-2.006 2.495-3.03 3.356-6.517 2.631-10.35-1.088-5.811-6.32-10.069-12.605-10.084Z" fill="#369AD4"/><path d="M60.546 55.689a6.913 6.913 0 0 1-.034-13.825c3.786-.027 6.925 3.096 6.94 6.902.014 3.806-3.083 6.909-6.906 6.923Zm4.583-6.925a4.604 4.604 0 1 0-4.581 4.634 4.59 4.59 0 0 0 4.581-4.634ZM60.86 56.275c5.53.021 10.346 4.464 10.86 10.303.021.25.048.5.052.754.012.792-.447 1.326-1.138 1.336-.69.01-1.165-.5-1.178-1.301a8.285 8.285 0 0 0-.59-3.028c-1.31-3.186-3.658-5.148-7.066-5.636-4.737-.677-8.899 2.261-9.993 6.93-.155.66-.147 1.34-.23 2.006-.116.923-1.13 1.344-1.837.782-.332-.264-.461-.618-.449-1.036.1-3.533 1.517-6.431 4.257-8.654 2.027-1.648 4.385-2.44 7.312-2.456Z" fill="#051B71"/></svg>