<svg width="68" height="70" viewBox="0 0 68 70" fill="none" xmlns="http://www.w3.org/2000/svg">
<path d="M35.0302 11.9202C12.3155 11.8231 -2.14458 46.3859 30.6162 56.1943C63.3769 66.0027 72.4628 12.0822 35.0302 11.9202Z" fill="#8CCE23"/>
<path d="M30.1562 6.89687C30.1562 6.77667 30.181 6.67127 30.152 6.58422C30.0135 6.1641 30.2018 5.81001 30.3631 5.44969C30.4647 5.22409 30.626 5.07694 30.8765 5.02543C31.3132 4.93631 31.7481 4.84335 32.1807 4.73972C32.5141 4.6589 32.8391 4.53277 33.1764 4.47682C33.6939 4.39214 34.2197 4.29059 34.7393 4.29651C38.126 4.33589 41.4135 4.94046 44.556 6.21355C47.0731 7.23409 49.5056 8.43494 51.7374 10.002C55.567 12.6891 58.515 16.1401 60.6369 20.301C61.9763 22.928 62.8583 25.7102 63.3281 28.6187C63.6636 30.6992 63.7379 32.7962 63.6553 34.8995C63.5309 38.0088 62.9039 41.0272 61.9514 43.979C61.3427 45.8691 60.5933 47.7032 59.6889 49.4772C58.6414 51.5328 57.4841 53.512 56.0392 55.3151C53.7788 58.1345 51.1414 60.5131 47.9513 62.2419C45.0199 63.8297 41.9106 64.9062 38.6047 65.4113C36.5181 65.7301 34.421 65.8027 32.324 65.6597C28.7777 65.4196 25.3951 64.5168 22.1763 62.985C19.6757 61.7948 17.4377 60.2174 15.32 58.4575C12.3451 55.9836 9.97477 53.0152 8.14478 49.6057C7.25865 47.9557 6.38732 46.3061 5.74338 44.5442C4.94015 42.3456 4.39361 40.0892 4.11205 37.7625C3.90895 36.0817 3.85299 34.3965 3.96254 32.7136C4.17985 29.3829 4.99137 26.1948 6.35979 23.1474C7.5707 20.452 9.17924 18.0154 11.1812 15.8502C13.2638 13.5981 15.6652 11.7432 18.3854 10.3043C21.501 8.6564 24.8092 7.60891 28.2992 7.13698C28.7898 7.07066 29.2825 7.02507 29.7731 6.96733C29.8974 6.95075 30.0235 6.92174 30.1562 6.89687ZM30.947 8.67712C30.9449 8.64396 30.9408 8.6108 30.9387 8.57557C30.8022 8.57557 30.6592 8.55484 30.5268 8.57971C30.1212 8.65432 29.7174 8.74107 29.3139 8.83019C23.6871 10.0867 18.8494 12.751 14.854 16.9264C13.6596 18.1726 12.6018 19.5244 11.6431 20.9592C9.13423 24.7207 7.98934 28.8858 7.96033 33.378C7.94997 34.9347 8.11547 36.479 8.41361 38.0088C8.88761 40.4413 9.65354 42.7763 10.7694 44.9912C12.4049 48.2435 14.6239 51.034 17.396 53.3918C20.3087 55.8699 23.6021 57.5859 27.3347 58.4638C29.3219 58.9295 31.3301 59.2048 33.367 59.2421C34.6401 59.267 35.9091 59.1882 37.17 58.9875C39.1551 58.6707 40.9913 57.911 42.7491 56.9879C45.8936 55.3358 48.7027 53.2284 51.0564 50.5437C53.2962 47.9871 55.0146 45.1262 56.0931 41.8967C56.7412 39.961 57.1448 37.9759 57.3248 35.941C57.4574 34.4527 57.455 32.962 57.3662 31.4778C57.2522 29.5898 56.8611 27.7453 56.2628 25.9526C55.7494 24.4083 55.1241 22.9138 54.0973 21.6259C53.5093 20.889 52.9462 20.1293 52.3212 19.4273C51.2758 18.2513 50.1496 17.1544 48.8371 16.2662C46.6302 14.7737 44.2599 13.6185 41.7137 12.8215C39.6561 12.1775 37.5528 11.7719 35.3977 11.6416C34.8367 11.6085 34.2757 11.567 33.7146 11.5546C33.4786 11.5484 33.2903 11.4883 33.1515 11.3062C32.9922 11.0992 32.8036 11.1013 32.578 11.1798C31.2013 11.6538 29.8083 12.0804 28.4502 12.6021C26.6099 13.312 24.8814 14.2645 23.1486 15.2042C22.9955 15.2871 22.838 15.3594 22.6808 15.436C22.6559 15.4049 22.6331 15.3718 22.6082 15.3407C22.7367 15.2042 22.8504 15.0488 22.9955 14.933C23.4218 14.5914 23.8443 14.2438 24.2935 13.9353C26.4796 12.4387 28.8499 11.3083 31.3505 10.4429C31.5139 10.3869 31.6756 10.3247 31.8618 10.2546C31.7395 10.0435 31.6528 9.89218 31.545 9.70181C30.6693 10.0041 29.8145 10.2629 28.9864 10.5921C22.7471 13.0639 17.6731 17.0653 13.5847 22.3566C12.8437 23.315 12.2142 24.3479 11.676 25.4327C11.3737 26.0394 11.0901 26.6561 10.7919 27.2669C10.7401 27.3726 10.6593 27.4655 10.5933 27.5629C10.5622 27.5505 10.5311 27.5381 10.5 27.5236C10.5228 27.3664 10.5352 27.2047 10.5705 27.0496C10.8748 25.6956 11.4172 24.4329 12.1334 23.2549C13.392 21.1827 14.8412 19.2429 16.5489 17.5186C17.9712 16.0818 19.4948 14.7489 21.1448 13.575C24.1197 11.4613 27.287 9.72668 30.8288 8.75143C30.8703 8.73693 30.9076 8.70169 30.947 8.67682V8.67712Z" fill="white"/>
<path d="M10.2192 29.8774C10.2607 30.1217 10.3021 30.2768 10.3104 30.4343C10.3249 30.7138 10.3166 30.9954 10.3228 31.2769C10.3498 32.4816 10.3912 33.6866 10.3995 34.8913C10.4016 35.3488 10.3332 35.8086 10.2772 36.2639C10.2627 36.3883 10.1943 36.5164 10.1221 36.6221C10.004 36.7897 9.83639 36.7897 9.71441 36.6221C9.63773 36.5185 9.57793 36.3924 9.54891 36.266C9.47223 35.9119 9.38548 35.556 9.35647 35.1978C9.23419 33.7074 9.27979 32.227 9.70227 30.7781C9.78724 30.482 9.8657 30.1735 10.2198 29.8774H10.2192Z" fill="#2F2F31"/>
<path d="M10.2725 38.7335C10.7962 39.1536 10.9804 39.754 11.1689 40.3441C11.407 41.0975 11.4028 41.1784 11.2664 41.5488C10.9226 41.4721 10.8483 41.1535 10.7219 40.909C10.3678 40.2363 10.0759 39.5426 10.2728 38.7332L10.2725 38.7335Z" fill="#2F2F31"/>
<path d="M49.4668 24.057C38.6501 33.9066 37.9865 37.1955 29.484 49.12C26.5005 43.5796 23.517 38.0391 20.5334 32.4987L25.2073 30.5151L30.8169 38.7687C30.8169 38.7687 34.8838 29.3352 44.7646 20.1866L49.4611 24.0513L49.4668 24.057Z" fill="white"/>
</svg>
