<svg width="22" height="23" viewBox="0 0 22 23" fill="none" xmlns="http://www.w3.org/2000/svg">
<path d="M5.77851 13.771C5.0329 12.4661 4.47368 10.9749 4.47368 9.29728C4.47368 4.63719 8.20175 0.909119 12.8618 0.909119C17.5219 0.909119 21.25 4.63719 21.25 9.29728C21.25 13.9574 17.5219 17.6854 12.8618 17.6854C11.1842 17.6854 9.69298 17.3126 8.38816 16.3806L2.60965 22.1591L0 19.5495L5.77851 13.771ZM12.8618 13.9574C15.4715 13.9574 17.5219 11.9069 17.5219 9.29728C17.5219 6.68763 15.4715 4.63719 12.8618 4.63719C10.2522 4.63719 8.20175 6.68763 8.20175 9.29728C8.20175 11.9069 10.2522 13.9574 12.8618 13.9574Z" fill="#F6CA2F"/>
</svg>
