<svg width="24" height="25" viewBox="0 0 24 25" fill="none" xmlns="http://www.w3.org/2000/svg">
<path d="M3 9.67397V15.674H7L12 20.674V4.67397L7 9.67397H3Z" fill="black"/>
<path d="M15.2622 8.99474C15.1611 8.99474 15.0598 9.03328 14.9827 9.11057L14.192 9.90124C14.0374 10.0558 14.0374 10.3061 14.192 10.4603L17.0752 13.3435L14.192 16.2267C14.0374 16.3812 14.0374 16.6315 14.192 16.7857L14.9827 17.5764C15.1373 17.731 15.3875 17.731 15.5417 17.5764L18.4249 14.6932L21.3081 17.5764C21.4623 17.731 21.713 17.731 21.8671 17.5764L22.6578 16.7857C22.8124 16.6311 22.8124 16.3808 22.6578 16.2267L19.7746 13.3435L22.6578 10.4603C22.8124 10.3061 22.8124 10.0554 22.6578 9.90124L21.8671 9.11057C21.7126 8.95599 21.4623 8.95599 21.3081 9.11057L18.4249 11.9938L15.5417 9.11057C15.4644 9.03328 15.3634 8.99474 15.2622 8.99474Z" fill="black"/>
</svg>
